<svg width="31" height="41" viewBox="0 0 31 41" fill="none" xmlns="http://www.w3.org/2000/svg">
  <path d="M0.053663 3.47071C0.0141136 3.01061 -0.0681967 2.0611 0.11072 1.64171C0.204556 1.42171 0.621021 1.25087 0.848934 1.1806C2.18001 0.795215 3.62268 0.599203 5.00767 0.476335C12.1515 -0.15761 19.4205 -0.173643 26.5619 0.517791C27.847 0.642225 29.3576 0.857841 30.55 1.33742C30.7857 1.43223 30.9264 1.59706 31 1.83403C30.8465 6.9441 30.9954 12.0911 30.893 17.2045C30.8756 18.073 30.8678 18.9602 30.8742 19.8278C30.2681 20.1534 29.6589 20.4734 29.0468 20.7884C29.6543 21.1229 30.276 21.4554 30.8654 21.8186L30.8206 32.7772C30.811 34.49 30.8982 36.2554 30.7939 37.9625C30.781 38.1735 30.7694 38.5875 30.6205 38.7359C28.8776 40.4737 20.4889 40.8896 17.9974 40.9372C17.7358 41.0499 15.2389 40.9779 14.7556 40.9716C11.9865 40.9378 2.33418 40.5852 0.495319 38.7284C0.372892 38.6044 0.284158 38.4835 0.263879 38.3057C0.143846 37.2517 0.252922 36.0775 0.242783 35.0117L0.189189 27.0214L0.053663 3.47071Z" fill="#016FB6" />
  <path d="M0.053663 3.47476C0.0141136 3.01413 -0.0681967 2.06351 0.11072 1.64363C0.204556 1.42337 0.621021 1.25233 0.848934 1.18198C2.18001 0.796144 3.62268 0.599903 5.00767 0.476891C12.1515 -0.157794 19.4205 -0.173846 26.5619 0.518396C27.847 0.642975 29.3576 0.858843 30.55 1.33898C30.7857 1.4339 30.9264 1.59892 31 1.83617C30.8465 6.95221 30.9954 12.1052 30.893 17.2246C30.8756 18.0942 30.8678 18.9823 30.8742 19.8509C30.2681 20.177 29.6589 20.4973 29.0468 20.8127C29.6543 21.1475 30.276 21.4804 30.8654 21.8441L30.8206 32.8155C30.811 34.5303 30.8982 36.2977 30.7939 38.0068C30.781 38.2181 30.7694 38.6325 30.6205 38.7811C28.8776 40.521 20.4889 40.9373 17.9974 40.985C17.8457 40.9718 17.5057 40.9937 17.3415 41C17.2807 40.669 17.3072 38.5015 17.3063 38.0338L17.3104 30.6756L17.3171 3.40868L14.1627 3.44373C13.4845 3.3641 12.2075 3.40285 11.4486 3.36711C8.64206 3.23507 2.40748 3.10322 0.0741302 1.90683C0.0772791 2.44377 0.0761457 2.9387 0.053663 3.47476Z" fill="#016FB6" />
  <path d="M0.053663 3.47476C0.0141136 3.01413 -0.0681967 2.06351 0.11072 1.64363C0.204556 1.42337 0.621021 1.25233 0.848934 1.18198C2.18001 0.796144 3.62268 0.599903 5.00767 0.476891C12.1515 -0.157794 19.4205 -0.173846 26.5619 0.518396C27.847 0.642975 29.3576 0.858843 30.55 1.33898C30.7857 1.4339 30.9264 1.59892 31 1.83617C28.8421 3.1735 20.137 3.41175 17.3736 3.43176C17.2585 12.3945 17.3543 21.5983 17.3645 30.5828L17.3572 37.5792C17.3599 38.3197 17.4384 40.4075 17.3415 41C17.2807 40.669 17.3072 38.5015 17.3063 38.0338L17.3104 30.6756L17.3171 3.40868L14.1627 3.44373C13.4845 3.3641 12.2075 3.40285 11.4486 3.36711C8.64206 3.23507 2.40748 3.10322 0.0741302 1.90683C0.0772791 2.44377 0.0761457 2.9387 0.053663 3.47476Z" fill="#85A2C2" />
  <path d="M14.1157 3.03539L17.3109 3L17.3041 30.5283L17.2999 37.957C17.3008 38.4292 17.274 40.6174 17.3356 40.9517C17.5019 40.9453 17.8463 40.9232 18 40.9365C17.7349 41.0504 15.2058 40.9776 14.7163 40.9713C14.5415 40.2541 13.1385 37.3278 12.7671 36.4651C10.5904 31.4082 8.22662 26.4006 6 21.3659C8.21603 21.4678 10.4553 21.5792 12.6724 21.6533C13.0808 21.6558 13.6334 21.6254 13.9212 21.3058C14.4192 20.7525 14.2573 19.5372 14.2524 18.7808L14.2087 15.0305L14.1157 3.03539Z" fill="#B7C4E1" />
</svg>
